<svg id="Gros_logo" data-name="Gros logo" xmlns="http://www.w3.org/2000/svg" viewBox="0 0 646.26 176.2"><defs><style>.cls-1{fill:none;stroke:#000;stroke-miterlimit:10;}.cls-2{fill:#ee3b3b;}</style></defs><g id="Calque_4" data-name="Calque 4"><path class="cls-1" d="M579.33,133c-.12-1-.28-1.9-.48-2.83H563.6l10.78-10.79c-.52-.8-1.08-1.58-1.67-2.33a32.43,32.43,0,0,0-5.61-5.62c-.75-.59-1.53-1.14-2.34-1.66L554,120.58V105.33c-.93-.2-1.88-.36-2.84-.48a32.87,32.87,0,0,0-7.93,0c-1,.12-1.9.28-2.83.48v15.25L529.59,109.8c-.8.52-1.58,1.07-2.34,1.66a32.43,32.43,0,0,0-5.61,5.62c-.59.75-1.15,1.53-1.67,2.33l10.78,10.79H515.5c-.2.93-.36,1.87-.48,2.83a34.69,34.69,0,0,0-.24,4,32.42,32.42,0,0,0,.25,4c.11,1,.27,1.9.47,2.83h15.25L520,154.59c.52.8,1.08,1.58,1.67,2.33a32.09,32.09,0,0,0,5.61,5.62c.76.59,1.54,1.14,2.34,1.67l10.79-10.79v15.26c.93.19,1.87.35,2.83.47a32.87,32.87,0,0,0,7.93,0c1-.12,1.91-.28,2.84-.47V153.42l10.78,10.79c.81-.53,1.59-1.08,2.34-1.67a32.09,32.09,0,0,0,5.61-5.62c.59-.75,1.15-1.53,1.67-2.33L563.6,143.8h15.25c.2-.93.36-1.87.48-2.83a33,33,0,0,0,0-7.94Z" transform="translate(-7.45 -9.24)"/><path d="M540.33,131.34a8.88,8.88,0,0,0-1.94,4.37H514.81c0-.9.11-1.8.21-2.68h22.57l-2.83-2.83-13.12-13.12a31,31,0,0,1,2.05-2.38Z" transform="translate(-7.45 -9.24)"/><path d="M569.22,113.28l-16.66,16.66a8.79,8.79,0,0,0-4.28-1.75V104.63c1,0,1.92.11,2.86.22v22.57l16-16C567.84,112,568.54,112.64,569.22,113.28Z" transform="translate(-7.45 -9.24)"/><path d="M546.18,104.63v23.54a8.76,8.76,0,0,0-4.33,1.72l-16.67-16.66c.67-.62,1.35-1.21,2.07-1.77l16,16V104.85C544.18,104.73,545.17,104.66,546.18,104.63Z" transform="translate(-7.45 -9.24)"/><path d="M579.54,135.71H556a8.83,8.83,0,0,0-1.89-4.31l16.64-16.65a27.62,27.62,0,0,1,2,2.33L559.59,130.2,556.76,133h22.57C579.43,133.91,579.5,134.81,579.54,135.71Z" transform="translate(-7.45 -9.24)"/><path d="M540.11,142.39l-16.66,16.66c-.63-.68-1.24-1.39-1.81-2.13l13.12-13.12,2.83-2.83H515a30.12,30.12,0,0,1-.23-3.16h23.53A8.9,8.9,0,0,0,540.11,142.39Z" transform="translate(-7.45 -9.24)"/><path d="M579.33,141H556.76l2.83,2.83,13.12,13.12A26.71,26.71,0,0,1,571,159l-16.67-16.66a8.81,8.81,0,0,0,1.74-4.52h23.54C579.53,138.87,579.45,139.93,579.33,141Z" transform="translate(-7.45 -9.24)"/><path d="M569.48,160.49c-.76.72-1.55,1.4-2.38,2L554,149.41l-2.84-2.83v22.57c-.94.12-1.9.19-2.86.22V145.81a8.83,8.83,0,0,0,4.56-2Z" transform="translate(-7.45 -9.24)"/><path d="M546.18,145.83v23.55c-1,0-2-.11-3-.23V146.58l-2.83,2.83-13.13,13.13c-.81-.63-1.58-1.3-2.32-2l16.64-16.65A8.8,8.8,0,0,0,546.18,145.83Z" transform="translate(-7.45 -9.24)"/><circle class="cls-1" cx="539.73" cy="127.76" r="9.24"/><circle cx="539.73" cy="127.76" r="6.89"/><path class="cls-1" d="M579.57,137a32.43,32.43,0,0,1-.24,4c-.12,1-.28,1.9-.48,2.83a32.15,32.15,0,0,1-4.47,10.79c-.52.8-1.08,1.58-1.67,2.33a32.09,32.09,0,0,1-5.61,5.62c-.75.59-1.53,1.14-2.34,1.67A32.31,32.31,0,0,1,554,168.68c-.93.19-1.88.35-2.84.47a32.87,32.87,0,0,1-7.93,0c-1-.12-1.9-.28-2.83-.47a32.27,32.27,0,0,1-10.79-4.47c-.8-.53-1.58-1.08-2.34-1.67a32.09,32.09,0,0,1-5.61-5.62c-.59-.75-1.15-1.53-1.67-2.33a32.36,32.36,0,0,1-4.47-10.79c-.2-.93-.36-1.87-.47-2.83a32.42,32.42,0,0,1-.25-4,34.69,34.69,0,0,1,.24-4c.12-1,.28-1.9.48-2.83A32.36,32.36,0,0,1,520,119.41c.52-.8,1.08-1.58,1.67-2.33a32.43,32.43,0,0,1,5.61-5.62c.76-.59,1.54-1.14,2.34-1.66a32.07,32.07,0,0,1,10.79-4.47c.93-.2,1.87-.36,2.83-.48a32.87,32.87,0,0,1,7.93,0c1,.12,1.91.28,2.84.48a32.1,32.1,0,0,1,10.78,4.47c.81.52,1.59,1.07,2.34,1.66a32.43,32.43,0,0,1,5.61,5.62c.59.75,1.15,1.53,1.67,2.33a32.15,32.15,0,0,1,4.47,10.79c.2.93.36,1.87.48,2.83A32.55,32.55,0,0,1,579.57,137Z" transform="translate(-7.45 -9.24)"/><path d="M591.68,124.58a7.11,7.11,0,0,1,1.59-.24.52.52,0,0,0,.49-.66q-.28-1-.63-2a.53.53,0,0,0-.54-.36,6,6,0,0,0-1.83.37.49.49,0,0,1-.64-.35.5.5,0,0,1,.34-.56,7.36,7.36,0,0,1,1.54-.37.52.52,0,0,0,.43-.7q-.39-1-.81-2a.52.52,0,0,0-.54-.31,6.11,6.11,0,0,0-1.83.53.48.48,0,0,1-.4-.87,7,7,0,0,1,1.52-.51.53.53,0,0,0,.37-.74c-.31-.64-.64-1.27-1-1.9a.54.54,0,0,0-.59-.26,6.7,6.7,0,0,0-1.74.68.48.48,0,0,1-.66-.17.49.49,0,0,1,.18-.66,7.36,7.36,0,0,1,1.47-.64.51.51,0,0,0,.3-.76c-.36-.62-.74-1.22-1.14-1.81a.54.54,0,0,0-.61-.21,6.36,6.36,0,0,0-1.67.83.48.48,0,0,1-.55-.79,7.59,7.59,0,0,1,1.4-.76.52.52,0,0,0,.24-.79c-.42-.58-.85-1.14-1.3-1.7a.52.52,0,0,0-.62-.15,6.45,6.45,0,0,0-1.59,1,.48.48,0,1,1-.62-.74,7.86,7.86,0,0,1,1.33-.88.52.52,0,0,0,.17-.81c-.47-.53-1-1.06-1.44-1.58a.53.53,0,0,0-.64-.09,6.18,6.18,0,0,0-1.49,1.1.5.5,0,0,1-.68,0,.48.48,0,0,1,0-.68,6.64,6.64,0,0,1,1.25-1,.52.52,0,0,0,.09-.82c-.51-.5-1-1-1.57-1.46a.53.53,0,0,0-.64,0,6.34,6.34,0,0,0-1.4,1.23.48.48,0,0,1-.73-.61,6.72,6.72,0,0,1,1.16-1.1.53.53,0,0,0,0-.83c-.55-.45-1.12-.88-1.69-1.31a.54.54,0,0,0-.65,0,6.31,6.31,0,0,0-1.28,1.35.48.48,0,0,1-.67.11.47.47,0,0,1-.11-.66,7.06,7.06,0,0,1,1.05-1.2.52.52,0,0,0,0-.82c-.59-.4-1.19-.79-1.8-1.16a.51.51,0,0,0-.64.07,6.29,6.29,0,0,0-1.15,1.42.5.5,0,0,1-.6.24.48.48,0,0,1-.25-.68,6.76,6.76,0,0,1,1-1.29.53.53,0,0,0-.12-.82c-.62-.35-1.26-.68-1.89-1a.55.55,0,0,0-.64.13,6.74,6.74,0,0,0-1,1.52.51.51,0,0,1-.58.3.49.49,0,0,1-.3-.67,7.4,7.4,0,0,1,.84-1.37.52.52,0,0,0-.19-.8c-.65-.29-1.31-.57-2-.83a.53.53,0,0,0-.62.18,6.67,6.67,0,0,0-.89,1.61.49.49,0,0,1-.55.34.47.47,0,0,1-.36-.63,6.47,6.47,0,0,1,.72-1.44.52.52,0,0,0-.26-.78c-.68-.23-1.35-.45-2-.66a.55.55,0,0,0-.6.24,6,6,0,0,0-.74,1.68.52.52,0,0,1-.52.39.49.49,0,0,1-.42-.6,7.42,7.42,0,0,1,.59-1.5.52.52,0,0,0-.33-.75c-.69-.18-1.38-.33-2.08-.47a.53.53,0,0,0-.58.28,6.32,6.32,0,0,0-.59,1.73.52.52,0,0,1-.49.44.48.48,0,0,1-.46-.57,6.88,6.88,0,0,1,.45-1.53.53.53,0,0,0-.39-.73c-.7-.11-1.41-.2-2.12-.28a.53.53,0,0,0-.55.33,6.75,6.75,0,0,0-.44,1.81.48.48,0,1,1-.95-.08,7,7,0,0,1,.31-1.56.52.52,0,0,0-.45-.69c-.71-.05-1.42-.08-2.14-.1a.53.53,0,0,0-.52.38,6.35,6.35,0,0,0-.27,1.84.48.48,0,0,1-.48.47.47.47,0,0,1-.48-.47,7,7,0,0,1,.18-1.59.53.53,0,0,0-.52-.64c-.71,0-1.42,0-2.13.08a.53.53,0,0,0-.49.43,6.38,6.38,0,0,0-.11,1.85.49.49,0,0,1-.44.52.48.48,0,0,1-.52-.44,7.05,7.05,0,0,1,0-1.59.51.51,0,0,0-.56-.6c-.71.07-1.42.16-2.12.26a.54.54,0,0,0-.45.47,6.43,6.43,0,0,0,0,1.86.49.49,0,0,1-.39.56.48.48,0,0,1-.56-.39,7.78,7.78,0,0,1-.1-1.6.52.52,0,0,0-.61-.55c-.7.14-1.4.29-2.09.46a.52.52,0,0,0-.41.5,6.48,6.48,0,0,0,.21,1.86.47.47,0,0,1-.34.58.48.48,0,0,1-.59-.34,7.73,7.73,0,0,1-.23-1.58.53.53,0,0,0-.66-.5c-.69.2-1.37.41-2.05.64a.51.51,0,0,0-.35.53,6.39,6.39,0,0,0,.36,1.84.47.47,0,0,1-.35.63.5.5,0,0,1-.56-.33,6.76,6.76,0,0,1-.36-1.54.52.52,0,0,0-.7-.43c-.67.26-1.33.53-2,.81a.52.52,0,0,0-.31.54,6.45,6.45,0,0,0,.53,1.82.47.47,0,0,1-.23.64.49.49,0,0,1-.64-.23,7.52,7.52,0,0,1-.5-1.52.52.52,0,0,0-.74-.37c-.64.31-1.28.64-1.9,1a.54.54,0,0,0-.26.59,6.49,6.49,0,0,0,.68,1.74.48.48,0,0,1-.18.65.48.48,0,0,1-.65-.17,7.36,7.36,0,0,1-.64-1.47.53.53,0,0,0-.77-.31c-.61.37-1.21.75-1.81,1.14a.55.55,0,0,0-.2.62,6.68,6.68,0,0,0,.83,1.67.47.47,0,0,1-.12.66.48.48,0,0,1-.67-.11,6.85,6.85,0,0,1-.76-1.41.53.53,0,0,0-.79-.23c-.58.42-1.15.85-1.7,1.29a.52.52,0,0,0-.15.63,6.13,6.13,0,0,0,1,1.59.48.48,0,1,1-.73.61,7,7,0,0,1-.88-1.33.52.52,0,0,0-.81-.16c-.54.47-1.07.94-1.58,1.44a.52.52,0,0,0-.1.63,6.31,6.31,0,0,0,1.1,1.5.48.48,0,0,1,0,.68.48.48,0,0,1-.67,0,7.51,7.51,0,0,1-1-1.25.53.53,0,0,0-.82-.1c-.49.52-1,1-1.45,1.57a.54.54,0,0,0,0,.65,6.26,6.26,0,0,0,1.23,1.39.48.48,0,0,1-.62.74,7,7,0,0,1-1.09-1.16.53.53,0,0,0-.83,0c-.45.55-.89,1.11-1.31,1.69a.53.53,0,0,0,0,.64,6,6,0,0,0,1.34,1.28.48.48,0,1,1-.55.79,7.05,7.05,0,0,1-1.19-1.06.53.53,0,0,0-.83,0c-.4.59-.78,1.19-1.16,1.79a.54.54,0,0,0,.07.64,6.34,6.34,0,0,0,1.43,1.15.51.51,0,0,1,.24.61.48.48,0,0,1-.69.24,7.94,7.94,0,0,1-1.29-1,.51.51,0,0,0-.81.12c-.35.62-.68,1.25-1,1.89a.52.52,0,0,0,.13.63,6.23,6.23,0,0,0,1.52,1,.51.51,0,0,1,.29.58.48.48,0,0,1-.66.31,7.09,7.09,0,0,1-1.37-.84.52.52,0,0,0-.8.19c-.29.65-.57,1.3-.83,2a.54.54,0,0,0,.18.62,6.15,6.15,0,0,0,1.61.88.51.51,0,0,1,.34.56.49.49,0,0,1-.64.36,7.66,7.66,0,0,1-1.43-.72.53.53,0,0,0-.79.26c-.23.67-.45,1.35-.65,2a.53.53,0,0,0,.23.6,6.65,6.65,0,0,0,1.68.75.5.5,0,0,1,.39.52.47.47,0,0,1-.6.41,6.61,6.61,0,0,1-1.49-.59.53.53,0,0,0-.76.33c-.17.69-.33,1.39-.47,2.09a.53.53,0,0,0,.29.58,6.55,6.55,0,0,0,1.73.59.49.49,0,0,1,.43.48.47.47,0,0,1-.56.47,7,7,0,0,1-1.54-.46.52.52,0,0,0-.72.39c-.11.71-.21,1.41-.29,2.12a.53.53,0,0,0,.34.55,6,6,0,0,0,1.81.44.49.49,0,0,1,.44.52.49.49,0,0,1-.52.44,7.54,7.54,0,0,1-1.57-.32.53.53,0,0,0-.69.46c-.05.7-.08,1.42-.1,2.13a.53.53,0,0,0,.39.52,6.3,6.3,0,0,0,1.83.28.47.47,0,0,1,.48.48.48.48,0,0,1-.48.48,7.18,7.18,0,0,1-1.59-.18.51.51,0,0,0-.64.51c0,.72,0,1.43.08,2.14a.53.53,0,0,0,.43.48,6.43,6.43,0,0,0,1.86.12.48.48,0,1,1,.08.95,7.14,7.14,0,0,1-1.6,0,.53.53,0,0,0-.6.57c.08.71.16,1.42.27,2.12a.51.51,0,0,0,.47.44,6.11,6.11,0,0,0,1.86,0,.48.48,0,0,1,.56.39.48.48,0,0,1-.39.55,6.68,6.68,0,0,1-1.61.1.52.52,0,0,0-.54.62c.13.7.28,1.4.45,2.09a.52.52,0,0,0,.48.4,6.24,6.24,0,0,0,1.88-.21.49.49,0,0,1,.59.34.48.48,0,0,1-.34.59,7.11,7.11,0,0,1-1.59.24.52.52,0,0,0-.49.66q.29,1,.63,2a.54.54,0,0,0,.54.36,6.34,6.34,0,0,0,1.83-.37.49.49,0,0,1,.64.35.5.5,0,0,1-.34.56,7.27,7.27,0,0,1-1.53.37.52.52,0,0,0-.44.7c.26.67.53,1.33.82,2a.51.51,0,0,0,.53.31,6.42,6.42,0,0,0,1.83-.53.48.48,0,1,1,.4.87,6.63,6.63,0,0,1-1.52.51.53.53,0,0,0-.37.74c.31.64.64,1.27,1,1.9a.54.54,0,0,0,.59.26,6.56,6.56,0,0,0,1.74-.68.48.48,0,0,1,.66.17.49.49,0,0,1-.18.66,6.89,6.89,0,0,1-1.47.64.52.52,0,0,0-.3.76c.37.61.75,1.22,1.14,1.81a.54.54,0,0,0,.61.21,6.36,6.36,0,0,0,1.67-.83.48.48,0,0,1,.67.12.47.47,0,0,1-.12.66,7.64,7.64,0,0,1-1.4.77.52.52,0,0,0-.24.79c.42.57.85,1.14,1.3,1.7a.54.54,0,0,0,.63.15,6.58,6.58,0,0,0,1.58-1,.48.48,0,0,1,.62.74,7.48,7.48,0,0,1-1.33.88.52.52,0,0,0-.17.8q.71.81,1.44,1.59a.53.53,0,0,0,.64.09,6.44,6.44,0,0,0,1.5-1.1.47.47,0,0,1,.67,0,.48.48,0,0,1,0,.68,6.34,6.34,0,0,1-1.25,1,.53.53,0,0,0-.09.82c.51.5,1,1,1.57,1.46a.53.53,0,0,0,.64,0,6.3,6.3,0,0,0,1.4-1.22.48.48,0,1,1,.73.61,7,7,0,0,1-1.15,1.1.53.53,0,0,0,0,.83c.56.44,1.12.88,1.69,1.31a.54.54,0,0,0,.65,0,6.55,6.55,0,0,0,1.28-1.35.49.49,0,0,1,.67-.12.48.48,0,0,1,.12.67,7.59,7.59,0,0,1-1.06,1.2.51.51,0,0,0,0,.82c.58.4,1.18.79,1.79,1.16a.51.51,0,0,0,.64-.07,6.29,6.29,0,0,0,1.15-1.42.52.52,0,0,1,.6-.25.48.48,0,0,1,.25.69,6.76,6.76,0,0,1-1,1.29.53.53,0,0,0,.12.82c.63.35,1.26.68,1.9,1a.54.54,0,0,0,.63-.13,6.74,6.74,0,0,0,1-1.52.51.51,0,0,1,.58-.3.48.48,0,0,1,.3.67,6.9,6.9,0,0,1-.84,1.37.52.52,0,0,0,.19.8c.65.29,1.31.57,2,.83a.52.52,0,0,0,.61-.18,6.67,6.67,0,0,0,.89-1.61.49.49,0,0,1,.55-.34.47.47,0,0,1,.36.63,6.47,6.47,0,0,1-.72,1.44.52.52,0,0,0,.26.78c.68.24,1.36.45,2,.66a.54.54,0,0,0,.6-.24,6,6,0,0,0,.74-1.68.53.53,0,0,1,.53-.39.47.47,0,0,1,.41.6,7.42,7.42,0,0,1-.59,1.5.52.52,0,0,0,.33.75c.69.18,1.38.33,2.09.48a.54.54,0,0,0,.57-.29,6.32,6.32,0,0,0,.59-1.73.53.53,0,0,1,.49-.44.49.49,0,0,1,.47.56,7.39,7.39,0,0,1-.46,1.54.53.53,0,0,0,.39.73c.7.11,1.41.2,2.12.28a.53.53,0,0,0,.55-.33,6.07,6.07,0,0,0,.44-1.81.48.48,0,1,1,1,.08,7.58,7.58,0,0,1-.32,1.56.52.52,0,0,0,.45.69c.71.05,1.42.09,2.14.11a.55.55,0,0,0,.52-.39,6.36,6.36,0,0,0,.28-1.84.48.48,0,0,1,.48-.48.49.49,0,0,1,.48.48,7.06,7.06,0,0,1-.19,1.59.54.54,0,0,0,.52.65c.71,0,1.43,0,2.14-.09a.52.52,0,0,0,.48-.42,6.48,6.48,0,0,0,.12-1.86.48.48,0,1,1,.95-.08,7.05,7.05,0,0,1,0,1.59.52.52,0,0,0,.57.6c.71-.07,1.41-.16,2.12-.26a.54.54,0,0,0,.44-.47,6.17,6.17,0,0,0,0-1.87.47.47,0,0,1,.39-.55.47.47,0,0,1,.55.39,6.6,6.6,0,0,1,.1,1.6.52.52,0,0,0,.61.55q1.07-.21,2.1-.45a.53.53,0,0,0,.4-.48,6.35,6.35,0,0,0-.21-1.89.47.47,0,0,1,.34-.58.48.48,0,0,1,.59.33,7.27,7.27,0,0,1,.23,1.59.54.54,0,0,0,.67.5c.68-.2,1.37-.41,2-.63a.54.54,0,0,0,.36-.54,6.76,6.76,0,0,0-.37-1.84.47.47,0,0,1,.35-.63.5.5,0,0,1,.56.33,6.76,6.76,0,0,1,.36,1.54.53.53,0,0,0,.71.43c.66-.25,1.33-.53,2-.81a.52.52,0,0,0,.31-.54,6.45,6.45,0,0,0-.53-1.82.48.48,0,1,1,.87-.41,7.55,7.55,0,0,1,.51,1.52.51.51,0,0,0,.73.37c.65-.31,1.28-.64,1.91-1a.51.51,0,0,0,.25-.59,6.17,6.17,0,0,0-.68-1.74.48.48,0,0,1,.83-.48,7.36,7.36,0,0,1,.64,1.47.53.53,0,0,0,.77.31c.61-.37,1.22-.75,1.81-1.14a.54.54,0,0,0,.2-.62,6.65,6.65,0,0,0-.82-1.67.48.48,0,0,1,.11-.67.49.49,0,0,1,.67.12,6.85,6.85,0,0,1,.76,1.41.53.53,0,0,0,.79.23q.87-.63,1.71-1.29a.55.55,0,0,0,.15-.63,6.45,6.45,0,0,0-1-1.59.48.48,0,0,1,.73-.61,6.53,6.53,0,0,1,.88,1.33.53.53,0,0,0,.81.16c.54-.47,1.07-.94,1.59-1.44a.53.53,0,0,0,.09-.63,6.31,6.31,0,0,0-1.1-1.5.48.48,0,0,1,.68-.68,7,7,0,0,1,1,1.25.53.53,0,0,0,.82.1c.5-.52,1-1,1.45-1.57a.54.54,0,0,0,0-.65,6.26,6.26,0,0,0-1.23-1.39.48.48,0,1,1,.62-.74,7.55,7.55,0,0,1,1.1,1.16.52.52,0,0,0,.82,0c.45-.55.89-1.11,1.31-1.69a.53.53,0,0,0,0-.64,6.35,6.35,0,0,0-1.35-1.29.47.47,0,0,1-.12-.66.48.48,0,0,1,.67-.12,7.12,7.12,0,0,1,1.2,1.06.52.52,0,0,0,.82,0c.4-.59.79-1.19,1.16-1.79a.54.54,0,0,0-.07-.65,6.3,6.3,0,0,0-1.43-1.14.51.51,0,0,1-.24-.61.48.48,0,0,1,.69-.24,7.16,7.16,0,0,1,1.29.95.53.53,0,0,0,.82-.12q.51-.93,1-1.89a.54.54,0,0,0-.12-.63,6.29,6.29,0,0,0-1.53-1,.51.51,0,0,1-.29-.58.47.47,0,0,1,.66-.31,7.09,7.09,0,0,1,1.37.84.53.53,0,0,0,.81-.19c.29-.65.56-1.31.83-2a.54.54,0,0,0-.19-.62,6.25,6.25,0,0,0-1.6-.88.53.53,0,0,1-.35-.56.49.49,0,0,1,.64-.36,8.07,8.07,0,0,1,1.44.72.52.52,0,0,0,.78-.26c.23-.67.45-1.35.65-2a.54.54,0,0,0-.23-.6,6.62,6.62,0,0,0-1.68-.74.5.5,0,0,1-.39-.52.48.48,0,0,1,.6-.42,7.12,7.12,0,0,1,1.49.59.52.52,0,0,0,.76-.32c.17-.69.33-1.39.47-2.09a.54.54,0,0,0-.28-.58,6.28,6.28,0,0,0-1.74-.59.49.49,0,0,1-.43-.48.48.48,0,0,1,.56-.47,7,7,0,0,1,1.54.46.52.52,0,0,0,.72-.4c.12-.7.21-1.4.29-2.12a.53.53,0,0,0-.34-.55,6.57,6.57,0,0,0-1.81-.44.47.47,0,0,1-.43-.52.47.47,0,0,1,.52-.43,7,7,0,0,1,1.56.32.53.53,0,0,0,.69-.46c0-.7.08-1.42.1-2.13a.53.53,0,0,0-.38-.52,6.41,6.41,0,0,0-1.84-.28.49.49,0,0,1-.48-.48.48.48,0,0,1,.48-.48,7,7,0,0,1,1.59.18.51.51,0,0,0,.64-.51c0-.72,0-1.43-.08-2.14a.52.52,0,0,0-.43-.48,6.39,6.39,0,0,0-1.85-.12.48.48,0,0,1-.09-1,7.13,7.13,0,0,1,1.6,0,.53.53,0,0,0,.6-.57c-.07-.71-.16-1.42-.26-2.12a.54.54,0,0,0-.47-.45,6.51,6.51,0,0,0-1.87,0,.48.48,0,0,1-.16-.95,7.13,7.13,0,0,1,1.6-.09.53.53,0,0,0,.55-.62c-.14-.7-.29-1.4-.46-2.09a.5.5,0,0,0-.47-.4,6.68,6.68,0,0,0-1.89.2.48.48,0,1,1-.25-.92Zm-44.5,46.57A34.15,34.15,0,1,1,581.33,137,34.16,34.16,0,0,1,547.18,171.15Z" transform="translate(-7.45 -9.24)"/></g><path class="cls-2" d="M87.22,31.72a22.1,22.1,0,0,0-5.55-2.85,19.25,19.25,0,0,0-6.32-1,18.4,18.4,0,0,0-7.75,1.6,18.68,18.68,0,0,0-6,4.36,20.5,20.5,0,0,0-3.95,6.45,21.73,21.73,0,0,0-1.42,7.88A21.49,21.49,0,0,0,57.6,56a20.15,20.15,0,0,0,3.95,6.4,18.49,18.49,0,0,0,13.8,5.89A24.7,24.7,0,0,0,78.89,68q1.76-.26,3.75-.66V54a2.3,2.3,0,0,1,.56-1.6,2.09,2.09,0,0,1,1.68-.64H98.75a2.85,2.85,0,0,1,1.63.61,1.89,1.89,0,0,1,.86,1.63V78.68a2.56,2.56,0,0,1-1.48,2.24,27.44,27.44,0,0,1-5.3,2.8,42.43,42.43,0,0,1-6.06,1.94A55.34,55.34,0,0,1,82,86.81a54.83,54.83,0,0,1-6.3.38,38.56,38.56,0,0,1-10.37-1.38A38.17,38.17,0,0,1,56,81.89a39.55,39.55,0,0,1-14-14,38.11,38.11,0,0,1-3.92-9.27,39.16,39.16,0,0,1,3.92-30.08,39.22,39.22,0,0,1,6.1-7.93A37.76,37.76,0,0,1,56,14.57a39.82,39.82,0,0,1,9.31-3.93A39.5,39.5,0,0,1,87.25,11a39.64,39.64,0,0,1,10.22,4.92,3.52,3.52,0,0,1,1.33,1.35,1.83,1.83,0,0,1-.21,1.91L90.33,31.06A3.68,3.68,0,0,1,89,32.16,2,2,0,0,1,87.22,31.72Z" transform="translate(-7.45 -9.24)"/><path class="cls-2" d="M180.57,82.3a4.6,4.6,0,0,1-.3,1.65,2.57,2.57,0,0,1-1,1.25,2.6,2.6,0,0,1-1.33.72,7,7,0,0,1-1.33.15h-10a4.44,4.44,0,0,1-1.73-.28,2.7,2.7,0,0,1-1.07-.79,4.27,4.27,0,0,1-.69-1.25c-.19-.49-.38-1-.59-1.61l-.66-2.29a28.61,28.61,0,0,1-3.14,2.7,24.08,24.08,0,0,1-8.41,4,19.41,19.41,0,0,1-5,.64,33.05,33.05,0,0,1-16.85-4.51,32.53,32.53,0,0,1-6.7-5.2,33.24,33.24,0,0,1-8.52-14.79,34.15,34.15,0,0,1-1.17-9A33.43,33.43,0,0,1,121.69,30a33.06,33.06,0,0,1,23.55-9.66,23,23,0,0,1,5.89.72,22.59,22.59,0,0,1,5,1.93,20.47,20.47,0,0,1,4.1,2.93,23.27,23.27,0,0,1,3.21,3.7l1.48-4.64c.34-.85.62-1.54.84-2.06a3.81,3.81,0,0,1,.71-1.18,1.9,1.9,0,0,1,.95-.5,7.15,7.15,0,0,1,1.58-.13h7.59a7,7,0,0,1,1.33.15,2.59,2.59,0,0,1,1.33.71,3.41,3.41,0,0,1,1,1.28,4.19,4.19,0,0,1,.3,1.63ZM130.35,53.75A18.49,18.49,0,0,0,131.4,60a15,15,0,0,0,3,5.08,14.14,14.14,0,0,0,10.71,4.63,16.12,16.12,0,0,0,6.35-1.24,16.43,16.43,0,0,0,5.09-3.39A15.2,15.2,0,0,0,159.92,60a16.52,16.52,0,0,0,0-12.51,16.24,16.24,0,0,0-3.39-5.2,16,16,0,0,0-5.09-3.55,15.65,15.65,0,0,0-6.35-1.3,13.92,13.92,0,0,0-6,1.3,14.1,14.1,0,0,0-4.67,3.55,16.09,16.09,0,0,0-3,5.2A18.42,18.42,0,0,0,130.35,53.75Z" transform="translate(-7.45 -9.24)"/><path class="cls-2" d="M192.81,25.1a3.86,3.86,0,0,1,.35-1.69,3.41,3.41,0,0,1,1-1.17,4,4,0,0,1,1.32-.69,5,5,0,0,1,1.45-.23h7.7a2.76,2.76,0,0,1,2,.77,6.6,6.6,0,0,1,1.3,1.93,19.64,19.64,0,0,1,1,2.6,24.26,24.26,0,0,0,1,2.76q1.53-1.68,3-3.32a23.2,23.2,0,0,1,3.23-2.9,16.43,16.43,0,0,1,3.8-2.07,13.3,13.3,0,0,1,4.72-.79,27,27,0,0,1,4.92.41,20.91,20.91,0,0,1,4.1,1.2,24.46,24.46,0,0,1,3.85,2q1.9,1.23,4.16,2.86c1.46.85,2.19,1.85,2.19,3a5.34,5.34,0,0,1-.87,2.6l-4.64,7.9a4.06,4.06,0,0,1-3.41,2,5.87,5.87,0,0,1-2.3-.56,16.16,16.16,0,0,0-4.46-3.19A12.18,12.18,0,0,0,223,37.48a10,10,0,0,0-3.49.56,9.28,9.28,0,0,0-2.73,1.58,15,15,0,0,0-2.3,2.45c-.71,1-1.42,2-2.14,3.16V82.14a4.12,4.12,0,0,1-.94,2.94,4.21,4.21,0,0,1-3.14,1H196.78q-4,0-4-3.93Z" transform="translate(-7.45 -9.24)"/><path class="cls-2" d="M316.59,82.3a4.6,4.6,0,0,1-.31,1.65,2.46,2.46,0,0,1-1,1.25,2.54,2.54,0,0,1-1.32.72,7.1,7.1,0,0,1-1.33.15h-10a4.46,4.46,0,0,1-1.74-.28,2.77,2.77,0,0,1-1.07-.79,4.5,4.5,0,0,1-.68-1.25c-.19-.49-.39-1-.59-1.61l-.67-2.29a28.47,28.47,0,0,1-3.13,2.7,24.31,24.31,0,0,1-8.41,4,19.46,19.46,0,0,1-5,.64,33.42,33.42,0,0,1-8.9-1.17,32.94,32.94,0,0,1-7.95-3.34,32.59,32.59,0,0,1-6.71-5.2,33.19,33.19,0,0,1-5.17-6.76,32.79,32.79,0,0,1-3.34-8,34.15,34.15,0,0,1-1.17-9,33.09,33.09,0,0,1,2.6-13.18A33.56,33.56,0,0,1,257.7,30a33.11,33.11,0,0,1,23.56-9.66,22.94,22.94,0,0,1,5.88.72,22.4,22.4,0,0,1,5,1.93,20.54,20.54,0,0,1,4.11,2.93,23.27,23.27,0,0,1,3.21,3.7l1.48-4.64c.33-.85.61-1.54.84-2.06a3.81,3.81,0,0,1,.71-1.18,1.91,1.91,0,0,1,.94-.5,7.21,7.21,0,0,1,1.58-.13h7.6a7.1,7.1,0,0,1,1.33.15,2.52,2.52,0,0,1,1.32.71,3.22,3.22,0,0,1,1,1.28,4.19,4.19,0,0,1,.31,1.63ZM266.37,53.75A18.49,18.49,0,0,0,267.42,60a14.86,14.86,0,0,0,3,5.08,14.09,14.09,0,0,0,10.7,4.63,16.05,16.05,0,0,0,6.35-1.24,16.59,16.59,0,0,0,5.1-3.39A15.5,15.5,0,0,0,295.94,60a16.64,16.64,0,0,0,0-12.51,16.58,16.58,0,0,0-3.39-5.2,16.18,16.18,0,0,0-5.1-3.55,15.58,15.58,0,0,0-6.35-1.3,13.82,13.82,0,0,0-10.7,4.85,15.91,15.91,0,0,0-3,5.2A18.42,18.42,0,0,0,266.37,53.75Z" transform="translate(-7.45 -9.24)"/><path class="cls-2" d="M375.72,83.83a9.06,9.06,0,0,0,.46-2.25c.07-.81.11-1.66.11-2.55v-.69a2.09,2.09,0,0,0,0-.38,2,2,0,0,1,0-.38v-.69c-1,1.06-2,2.09-3,3.11a20.47,20.47,0,0,1-3.39,2.73,17.69,17.69,0,0,1-4.21,1.94,18.23,18.23,0,0,1-5.45.74,33.9,33.9,0,0,1-12.75-2.35,30.34,30.34,0,0,1-10.14-6.55,29.42,29.42,0,0,1-6.68-10.07,33.75,33.75,0,0,1-2.4-12.9,35.34,35.34,0,0,1,2.4-13.07,32.26,32.26,0,0,1,6.68-10.61,30.79,30.79,0,0,1,10.14-7.08,31.31,31.31,0,0,1,12.75-2.58,22.06,22.06,0,0,1,5.76.71,20.44,20.44,0,0,1,4.76,2,20.86,20.86,0,0,1,3.95,2.93A36.08,36.08,0,0,1,378,29.38l1.42-4.54.57-1.58a3.82,3.82,0,0,1,.66-1.2,2.63,2.63,0,0,1,1-.74,4.57,4.57,0,0,1,1.66-.25h7.6a4.27,4.27,0,0,1,1.43.25,4.54,4.54,0,0,1,1.29.72,3.33,3.33,0,0,1,.95,1.17,3.72,3.72,0,0,1,.35,1.63v51.9a36.53,36.53,0,0,1-2.59,14.17,29.8,29.8,0,0,1-17.8,17,38.6,38.6,0,0,1-13.25,2.24,39.58,39.58,0,0,1-5.92-.48,45.36,45.36,0,0,1-6.29-1.45,37.18,37.18,0,0,1-6.07-2.48,24.52,24.52,0,0,1-5.17-3.49,5.16,5.16,0,0,1-1.31-1.4A3.44,3.44,0,0,1,336,99a4.83,4.83,0,0,1,1-2.7l4.84-6.68a7.16,7.16,0,0,1,1.33-1.15,2.47,2.47,0,0,1,1.32-.38,5.23,5.23,0,0,1,2.81,1.22,10,10,0,0,0,2.93,2,19.65,19.65,0,0,0,3.41,1.18,21.58,21.58,0,0,0,3.47.56c1.14.08,2.17.13,3.09.13a20.13,20.13,0,0,0,4.79-.62,18.49,18.49,0,0,0,4.66-1.81,15.83,15.83,0,0,0,3.83-2.93A9.1,9.1,0,0,0,375.72,83.83ZM346.56,53.54a18.68,18.68,0,0,0,1.05,6.35,14.81,14.81,0,0,0,3,5.07,13.89,13.89,0,0,0,4.67,3.37,14.65,14.65,0,0,0,6,1.22,16.35,16.35,0,0,0,6.14-1.15,15.45,15.45,0,0,0,5-3.18,15.79,15.79,0,0,0,3.44-4.8,15.61,15.61,0,0,0,1.46-6V52.78a15.67,15.67,0,0,0-1.46-5.89A16.7,16.7,0,0,0,372.46,42a16.29,16.29,0,0,0-5-3.37,15.32,15.32,0,0,0-6.14-1.25,13.78,13.78,0,0,0-6,1.3,14.49,14.49,0,0,0-4.67,3.49,15.47,15.47,0,0,0-3,5.15A18.47,18.47,0,0,0,346.56,53.54Z" transform="translate(-7.45 -9.24)"/><path class="cls-2" d="M461.42,78.32a34,34,0,0,1-10.09,6.45,30.9,30.9,0,0,1-11.88,2.32,34.68,34.68,0,0,1-24.11-9.61,33.93,33.93,0,0,1-7.45-10.63,32.16,32.16,0,0,1-2.75-13.31,33.9,33.9,0,0,1,9.1-23.32,30.79,30.79,0,0,1,6.45-5.28,31.58,31.58,0,0,1,7.75-3.41,31.07,31.07,0,0,1,8.82-1.23,30.46,30.46,0,0,1,8.21,1.12,32.17,32.17,0,0,1,13.86,8.06,32.69,32.69,0,0,1,5,6.24A30.77,30.77,0,0,1,467.57,43a27.8,27.8,0,0,1,1.14,7.93c0,1.77,0,3.21-.07,4.34a4.91,4.91,0,0,1-.79,2.67,3.91,3.91,0,0,1-2.37,1.38,23.64,23.64,0,0,1-4.87.38H423.9A12.68,12.68,0,0,0,426,65.12a12.91,12.91,0,0,0,3.59,3.49,14.41,14.41,0,0,0,4.33,1.86,18.53,18.53,0,0,0,4.34.56,19.84,19.84,0,0,0,3.77-.38,28.74,28.74,0,0,0,3.75-1,21.9,21.9,0,0,0,3.31-1.48,11.06,11.06,0,0,0,2.42-1.76,11.11,11.11,0,0,1,1.4-1,2.52,2.52,0,0,1,1.25-.34,2.46,2.46,0,0,1,1.35.46A10.9,10.9,0,0,1,457,66.85l5.4,6.12a3.33,3.33,0,0,1,.72,1.19,4.11,4.11,0,0,1,.15,1.1,2.85,2.85,0,0,1-.56,1.76A6.31,6.31,0,0,1,461.42,78.32ZM436.9,35.85a9.9,9.9,0,0,0-3.85.79,14.49,14.49,0,0,0-3.49,2.12,17.78,17.78,0,0,0-2.93,3,18.73,18.73,0,0,0-2.12,3.41h26.06a31.47,31.47,0,0,0-2.32-3.67,16.06,16.06,0,0,0-2.86-3,12.34,12.34,0,0,0-3.67-2A14.64,14.64,0,0,0,436.9,35.85Z" transform="translate(-7.45 -9.24)"/><path d="M107.7,79.35a2.62,2.62,0,0,0-1.46-.55,7.5,7.5,0,0,1-3.78,6.33,33.5,33.5,0,0,1-6.12,3.23,51.24,51.24,0,0,1-6.76,2.16,61.66,61.66,0,0,1-7,1.25,58.23,58.23,0,0,1-6.88.42h-.12c-.59,1.75-1.18,3.51-1.76,5.26q-2.64,8-5.21,16t-5.22,16q-2.64,8-5.52,16L36.4,81.43a3.65,3.65,0,0,0-3.66-2.68H10.06c-1.74,0-2.61.66-2.61,2a1.55,1.55,0,0,0,.11.56,1.83,1.83,0,0,1,.11.64l36.12,94.57c.38.94.76,1.86,1.16,2.75a23.31,23.31,0,0,0,1.38,2.61,2.87,2.87,0,0,0,2.88,1.47h17.4a2.88,2.88,0,0,0,1.9-.7A7,7,0,0,0,70,180.89a14.75,14.75,0,0,0,1.12-2.21c.33-.8.61-1.53.85-2.19L108.3,81.92v-.21a3.18,3.18,0,0,0,.07-.78A2,2,0,0,0,107.7,79.35Z" transform="translate(-7.45 -9.24)"/><path d="M129.31,160.79a3.42,3.42,0,0,0-2.22-.84H108.45a3,3,0,0,0-2.34.84,3.22,3.22,0,0,0-.77,2.25v17.05c0,2.15,1,3.23,3.11,3.23h18.64a3,3,0,0,0,2.44-1,3.46,3.46,0,0,0,.81-2.25V163A2.77,2.77,0,0,0,129.31,160.79Z" transform="translate(-7.45 -9.24)"/><path d="M228.36,104.49a35.46,35.46,0,0,0-3.06-8,36.32,36.32,0,0,0-4.89-7.08,33.06,33.06,0,0,0-3.71-3.59A8.09,8.09,0,0,1,215,88.52a8.93,8.93,0,0,1-6.76,2.54H196.79c-5.37,0-9-3.58-9-8.92V78.75h-2.24v3.54a9.57,9.57,0,0,1-.64,3.47,8.73,8.73,0,0,1-6,5,11.61,11.61,0,0,1-2.31.25h-10a9.28,9.28,0,0,1-3.67-.67,7.68,7.68,0,0,1-3-2.26c0-.07-.11-.14-.16-.22a29.21,29.21,0,0,1-8.15,3.53,23.07,23.07,0,0,1-2.75.55V180.3a2.87,2.87,0,0,0,.84,2.28,3.29,3.29,0,0,0,2.26.74H172.8c2.16,0,3.24-1,3.24-3V146.78h21.34a29.89,29.89,0,0,0,13.1-3,33.06,33.06,0,0,0,10.14-7.64,33.93,33.93,0,0,0,6.51-10.77,34.73,34.73,0,0,0,2.29-12.4A34.27,34.27,0,0,0,228.36,104.49ZM201.08,117.2a11.71,11.71,0,0,1-2.12,3.73,10.58,10.58,0,0,1-3.41,2.64,10.14,10.14,0,0,1-4.58,1H176V101.07H191a9.65,9.65,0,0,1,4.54,1.06,11.4,11.4,0,0,1,3.42,2.71,11.82,11.82,0,0,1,2.15,3.77,12.79,12.79,0,0,1,.73,4.22A13.19,13.19,0,0,1,201.08,117.2Z" transform="translate(-7.45 -9.24)"/><path d="M331.18,97.38a5,5,0,0,0-.28-.88,4.41,4.41,0,0,0-1.41-1.76,3.52,3.52,0,0,0-1.83-1,9.67,9.67,0,0,0-1.83-.21h-10.5a11,11,0,0,0-2.18.17,2.63,2.63,0,0,0-1.3.71,5.14,5.14,0,0,0-1,1.62c-.3.73-.69,1.68-1.16,2.85l-2,6.41a31.84,31.84,0,0,0-4.44-5.11,27.51,27.51,0,0,0-5.67-4,31.52,31.52,0,0,0-6.9-2.67,31.89,31.89,0,0,0-8.13-1A45.63,45.63,0,0,0,250,105.83a46.11,46.11,0,0,0-13.38,32.85,47.13,47.13,0,0,0,1.62,12.43A46.09,46.09,0,0,0,250,171.53a45.17,45.17,0,0,0,20.25,11.79,46.08,46.08,0,0,0,12.29,1.62,27,27,0,0,0,6.93-.88,33.19,33.19,0,0,0,11.62-5.6,39.91,39.91,0,0,0,4.33-3.73l.92,3.17q.42,1.2.81,2.22a6.32,6.32,0,0,0,.95,1.73,3.74,3.74,0,0,0,1.48,1.09,6.2,6.2,0,0,0,2.39.38h13.88a9.67,9.67,0,0,0,1.83-.21,3.57,3.57,0,0,0,1.83-1,3.48,3.48,0,0,0,1.41-1.73,6.33,6.33,0,0,0,.42-2.29V98.75A6.55,6.55,0,0,0,331.18,97.38Zm-28.38,50a21.3,21.3,0,0,1-4.68,7,22.5,22.5,0,0,1-7.05,4.68,22,22,0,0,1-8.76,1.73,19.58,19.58,0,0,1-14.79-6.41,20.45,20.45,0,0,1-4.12-7,26.67,26.67,0,0,1,0-17.29,22,22,0,0,1,4.12-7.19A19.56,19.56,0,0,1,274,118a19.1,19.1,0,0,1,8.35-1.8,21.32,21.32,0,0,1,8.76,1.8,22.4,22.4,0,0,1,7.05,4.89,22.9,22.9,0,0,1,4.68,7.19,23,23,0,0,1,0,17.29Z" transform="translate(-7.45 -9.24)"/><path d="M415.68,101.43c-2.06-1.51-4-2.82-5.73-4a34.34,34.34,0,0,0-5.32-2.78A29.74,29.74,0,0,0,399,93c-.63-.12-1.28-.21-2-.29a.36.36,0,0,0,0,.09,34.71,34.71,0,0,1-20.7,19.8,43.84,43.84,0,0,1-15,2.54,44.4,44.4,0,0,1-6.67-.54,48.53,48.53,0,0,1-6.41-1.45V177.9c0,3.62,1.83,5.42,5.49,5.42h15.85c2,0,3.46-.45,4.33-1.37a5.65,5.65,0,0,0,1.3-4v-51c1-1.6,2-3,3-4.37a20.2,20.2,0,0,1,3.17-3.38,12.9,12.9,0,0,1,3.77-2.18,13.65,13.65,0,0,1,4.82-.78,16.94,16.94,0,0,1,7.15,1.45,22.25,22.25,0,0,1,6.16,4.4,7.9,7.9,0,0,0,3.17.77,5.6,5.6,0,0,0,4.72-2.74l6.41-10.92a7.41,7.41,0,0,0,1.19-3.59Q418.71,103.18,415.68,101.43Z" transform="translate(-7.45 -9.24)"/><path d="M496.74,101.43c-2.07-1.51-4-2.82-5.74-4a33.89,33.89,0,0,0-5.32-2.78A29.32,29.32,0,0,0,480,93a37.41,37.41,0,0,0-6.79-.56,18.3,18.3,0,0,0-6.52,1.09,22,22,0,0,0-5.24,2.86,31.29,31.29,0,0,0-4.48,4L452.79,105a32.9,32.9,0,0,1-1.33-3.81,25.42,25.42,0,0,0-1.31-3.59A9,9,0,0,0,448.36,95a3.81,3.81,0,0,0-2.82-1.06H434.91a6.8,6.8,0,0,0-2,.32,5.69,5.69,0,0,0-1.83,1,4.53,4.53,0,0,0-1.3,1.62,5.12,5.12,0,0,0-.5,2.32v78.8c0,3.62,1.83,5.42,5.5,5.42h15.84c2,0,3.46-.45,4.33-1.37a5.65,5.65,0,0,0,1.3-4v-51c1-1.6,2-3,3-4.37a20.2,20.2,0,0,1,3.17-3.38,12.9,12.9,0,0,1,3.77-2.18,13.65,13.65,0,0,1,4.82-.78,16.94,16.94,0,0,1,7.15,1.45,22.25,22.25,0,0,1,6.16,4.4,7.9,7.9,0,0,0,3.17.77,5.6,5.6,0,0,0,4.72-2.74l6.41-10.92a7.41,7.41,0,0,0,1.19-3.59Q499.76,103.18,496.74,101.43Z" transform="translate(-7.45 -9.24)"/><path d="M652.3,95.16a5.12,5.12,0,0,0-3.67-1.34H639l.07-19.37a7.88,7.88,0,0,0-.88-4c-.59-1-1.75-1.51-3.49-1.51h-.6a4.13,4.13,0,0,0-.67.07l-16,5.56a16.13,16.13,0,0,0-4.12,2.08A3.86,3.86,0,0,0,611.88,80l-.07,13.87h-7.26q-5.41,0-5.42,5.35v13.59q0,5.71,5.42,5.71h7.26l.07,59.43c0,3.62,1.8,5.42,5.42,5.42h15.91a6.24,6.24,0,0,0,4.3-1.37,5.12,5.12,0,0,0,1.55-4L639,118.47h9.64a5,5,0,0,0,3.67-1.38,5.81,5.81,0,0,0,1.41-4.33V99.17A5.28,5.28,0,0,0,652.3,95.16Z" transform="translate(-7.45 -9.24)"/></svg>