<svg id="Petit_Logo" data-name="Petit Logo" xmlns="http://www.w3.org/2000/svg" viewBox="0 0 229.42 41.99"><defs><style>.cls-1{fill:none;stroke:#000;stroke-miterlimit:10;}.cls-2{fill:#ee3b3b;}</style></defs><g id="Calque_3" data-name="Calque 3"><g id="Calque_2" data-name="Calque 2"><path class="cls-1" d="M218.69,27.43a11.22,11.22,0,0,0-.19-1.16h-6.21l4.39-4.39a10.88,10.88,0,0,0-.68-.95,13,13,0,0,0-2.28-2.29c-.31-.24-.63-.47-1-.68l-4.39,4.4V16.14c-.38-.08-.76-.14-1.15-.19A13.17,13.17,0,0,0,204,16c-.39.05-.77.11-1.15.19v6.22L198.44,18c-.33.21-.65.44-1,.68a13,13,0,0,0-2.28,2.29,10.88,10.88,0,0,0-.68.95l4.39,4.39H192.7c-.08.38-.15.77-.2,1.16a14.35,14.35,0,0,0-.09,1.61,12.36,12.36,0,0,0,.1,1.62,11,11,0,0,0,.19,1.15h6.21l-4.39,4.4c.21.32.44.64.68.95a13,13,0,0,0,2.28,2.28c.31.24.63.47,1,.68l4.39-4.39v6.21c.38.08.76.15,1.15.2a14.63,14.63,0,0,0,3.24,0c.39,0,.77-.12,1.15-.2V35.73l4.39,4.39c.33-.21.65-.44,1-.68A13,13,0,0,0,216,37.16c.24-.31.47-.63.68-.95l-4.39-4.4h6.21a11,11,0,0,0,.19-1.15,13.09,13.09,0,0,0,0-3.23Z" transform="translate(-12.39 -4.37)"/><path d="M202.81,26.74a3.65,3.65,0,0,0-.79,1.78h-9.6c0-.37,0-.73.08-1.09h9.2l-1.16-1.16-5.34-5.34c.26-.34.54-.66.83-1Z" transform="translate(-12.39 -4.37)"/><path d="M214.58,19.38l-6.79,6.79a3.56,3.56,0,0,0-1.74-.72V15.86a11.52,11.52,0,0,1,1.17.09v9.19l6.5-6.5C214,18.87,214.3,19.12,214.58,19.38Z" transform="translate(-12.39 -4.37)"/><path d="M205.19,15.86v9.59a3.55,3.55,0,0,0-1.76.7l-6.79-6.79q.41-.37.84-.72l6.5,6.5V16A12.09,12.09,0,0,1,205.19,15.86Z" transform="translate(-12.39 -4.37)"/><path d="M218.78,28.52h-9.6a3.69,3.69,0,0,0-.77-1.76L215.19,20a12.29,12.29,0,0,1,.81.95l-5.34,5.34-1.16,1.16h9.19A9.81,9.81,0,0,1,218.78,28.52Z" transform="translate(-12.39 -4.37)"/><path d="M202.72,31.24,195.94,38c-.26-.28-.51-.56-.74-.86l5.34-5.35,1.16-1.15h-9.19a10.87,10.87,0,0,1-.1-1.29H202A3.61,3.61,0,0,0,202.72,31.24Z" transform="translate(-12.39 -4.37)"/><path d="M218.69,30.66H209.5l1.16,1.15L216,37.16q-.34.44-.72.84l-6.79-6.79a3.5,3.5,0,0,0,.71-1.84h9.59A10.87,10.87,0,0,1,218.69,30.66Z" transform="translate(-12.39 -4.37)"/><path d="M214.68,38.61c-.31.29-.63.57-1,.83l-5.35-5.34-1.15-1.16v9.2q-.58.06-1.17.09v-9.6a3.49,3.49,0,0,0,1.85-.8Z" transform="translate(-12.39 -4.37)"/><path d="M205.19,32.64v9.59a12.09,12.09,0,0,1-1.21-.09v-9.2l-1.15,1.16-5.35,5.34a11.84,11.84,0,0,1-.94-.81l6.78-6.78A3.57,3.57,0,0,0,205.19,32.64Z" transform="translate(-12.39 -4.37)"/><circle class="cls-1" cx="193.21" cy="24.67" r="3.76"/><circle cx="193.21" cy="24.67" r="2.81"/></g><path class="cls-1" d="M218.79,29a12.36,12.36,0,0,1-.1,1.62,11,11,0,0,1-.19,1.15,13.06,13.06,0,0,1-1.82,4.4c-.21.32-.44.64-.68.95a13,13,0,0,1-2.28,2.28c-.31.24-.63.47-1,.68a13,13,0,0,1-4.39,1.82c-.38.08-.76.15-1.15.2a14.63,14.63,0,0,1-3.24,0c-.39,0-.77-.12-1.15-.2a13,13,0,0,1-4.39-1.82c-.33-.21-.65-.44-1-.68a13,13,0,0,1-2.28-2.28c-.24-.31-.47-.63-.68-.95a13.06,13.06,0,0,1-1.82-4.4,11,11,0,0,1-.19-1.15,12.36,12.36,0,0,1-.1-1.62,14.35,14.35,0,0,1,.09-1.61c.05-.39.12-.78.2-1.16a13,13,0,0,1,1.82-4.39,10.88,10.88,0,0,1,.68-.95,13,13,0,0,1,2.28-2.29c.31-.24.63-.47,1-.68a13.21,13.21,0,0,1,4.39-1.82c.38-.08.76-.14,1.15-.19a13.17,13.17,0,0,1,3.24,0c.39.05.77.11,1.15.19A13.21,13.21,0,0,1,212.76,18c.33.21.65.44,1,.68A13,13,0,0,1,216,20.93a10.88,10.88,0,0,1,.68.95,13,13,0,0,1,1.82,4.39,11.22,11.22,0,0,1,.19,1.16A12.32,12.32,0,0,1,218.79,29Z" transform="translate(-12.39 -4.37)"/><path d="M222.78,29.31a2.51,2.51,0,0,0-.66-.1A.16.16,0,0,1,222,29a.17.17,0,0,1,.17-.17,2.22,2.22,0,0,1,.57.07.2.2,0,0,0,.23-.19l0-.76a.18.18,0,0,0-.15-.17,2.17,2.17,0,0,0-.67-.05.16.16,0,0,1-.18-.15.17.17,0,0,1,.15-.19,2.18,2.18,0,0,1,.57,0,.2.2,0,0,0,.22-.21c0-.25-.06-.5-.1-.75a.18.18,0,0,0-.16-.16,2.15,2.15,0,0,0-.67,0,.17.17,0,0,1-.2-.14.18.18,0,0,1,.14-.2,2.73,2.73,0,0,1,.57,0,.19.19,0,0,0,.2-.22c-.05-.25-.1-.5-.16-.75a.18.18,0,0,0-.17-.14,2.22,2.22,0,0,0-.68.07.17.17,0,0,1-.21-.12.18.18,0,0,1,.12-.21,2.24,2.24,0,0,1,.57-.08.2.2,0,0,0,.18-.24c-.07-.25-.15-.49-.23-.73a.21.21,0,0,0-.19-.13,2.42,2.42,0,0,0-.66.13.16.16,0,0,1-.22-.12.17.17,0,0,1,.11-.2,2.2,2.2,0,0,1,.55-.13.19.19,0,0,0,.16-.25c-.09-.24-.19-.48-.29-.71a.18.18,0,0,0-.19-.11,2.17,2.17,0,0,0-.66.19.16.16,0,0,1-.22-.09.16.16,0,0,1,.08-.22,2.17,2.17,0,0,1,.54-.19.19.19,0,0,0,.14-.26c-.12-.23-.23-.46-.35-.68a.2.2,0,0,0-.22-.09,2.34,2.34,0,0,0-.62.24.17.17,0,0,1-.23-.06.18.18,0,0,1,.06-.24,2.47,2.47,0,0,1,.53-.22.19.19,0,0,0,.1-.28l-.4-.65a.19.19,0,0,0-.22-.07,2.11,2.11,0,0,0-.6.3.18.18,0,0,1-.24-.05.17.17,0,0,1,0-.23,3.15,3.15,0,0,1,.51-.28.18.18,0,0,0,.08-.28c-.15-.21-.3-.41-.46-.61a.2.2,0,0,0-.23-.05,2.77,2.77,0,0,0-.57.34.16.16,0,0,1-.24,0,.17.17,0,0,1,0-.24,2.46,2.46,0,0,1,.48-.31.19.19,0,0,0,.06-.29l-.51-.57a.2.2,0,0,0-.23,0,2.07,2.07,0,0,0-.54.39.17.17,0,0,1-.24-.24,2.3,2.3,0,0,1,.45-.36.18.18,0,0,0,0-.29c-.18-.18-.37-.35-.56-.52a.2.2,0,0,0-.23,0,2.11,2.11,0,0,0-.5.44.17.17,0,0,1-.26-.22,2.59,2.59,0,0,1,.41-.4.18.18,0,0,0,0-.29c-.2-.16-.4-.32-.61-.47a.18.18,0,0,0-.23,0,2.27,2.27,0,0,0-.45.48.18.18,0,0,1-.29-.2,2.6,2.6,0,0,1,.38-.43.18.18,0,0,0,0-.29l-.65-.42a.18.18,0,0,0-.22,0,2,2,0,0,0-.41.51.2.2,0,0,1-.22.09.18.18,0,0,1-.09-.25,2.61,2.61,0,0,1,.34-.46.18.18,0,0,0,0-.29c-.22-.13-.45-.25-.68-.36a.17.17,0,0,0-.22.05,2.25,2.25,0,0,0-.37.54.17.17,0,0,1-.21.1.16.16,0,0,1-.1-.23,2.22,2.22,0,0,1,.3-.49.19.19,0,0,0-.07-.29l-.71-.29a.17.17,0,0,0-.22.06,2.27,2.27,0,0,0-.31.57.19.19,0,0,1-.2.13.17.17,0,0,1-.13-.23,2,2,0,0,1,.26-.51.19.19,0,0,0-.1-.28c-.24-.09-.48-.16-.73-.24a.18.18,0,0,0-.21.09,2,2,0,0,0-.27.6.18.18,0,0,1-.18.14.18.18,0,0,1-.15-.22,2.66,2.66,0,0,1,.21-.53.18.18,0,0,0-.12-.27l-.74-.17a.18.18,0,0,0-.21.1,2.27,2.27,0,0,0-.21.62.17.17,0,0,1-.17.15.17.17,0,0,1-.17-.2,2.66,2.66,0,0,1,.16-.55.18.18,0,0,0-.14-.25l-.76-.11a.18.18,0,0,0-.19.12,2.14,2.14,0,0,0-.16.65.19.19,0,0,1-.19.16.18.18,0,0,1-.15-.19A2.64,2.64,0,0,1,207,12a.18.18,0,0,0-.16-.24l-.76,0a.19.19,0,0,0-.19.14,2.38,2.38,0,0,0-.1.65.17.17,0,0,1-.17.17.16.16,0,0,1-.17-.17,2.6,2.6,0,0,1,.06-.56.19.19,0,0,0-.18-.24l-.76,0a.2.2,0,0,0-.18.16,2.44,2.44,0,0,0,0,.66.18.18,0,0,1-.16.19.18.18,0,0,1-.18-.16,2.72,2.72,0,0,1,0-.57.18.18,0,0,0-.2-.21c-.25,0-.51,0-.76.09a.19.19,0,0,0-.16.17,2.43,2.43,0,0,0,0,.66.17.17,0,0,1-.14.2.17.17,0,0,1-.2-.14,2.73,2.73,0,0,1,0-.57.19.19,0,0,0-.22-.2l-.75.17a.18.18,0,0,0-.14.18,2.12,2.12,0,0,0,.07.66.17.17,0,0,1-.12.21.17.17,0,0,1-.21-.12,2.82,2.82,0,0,1-.09-.57.18.18,0,0,0-.23-.17l-.73.22a.19.19,0,0,0-.13.19,2.09,2.09,0,0,0,.13.66.17.17,0,0,1-.12.23.2.2,0,0,1-.21-.12,3.39,3.39,0,0,1-.13-.55.19.19,0,0,0-.25-.16l-.71.29a.2.2,0,0,0-.11.2,3,3,0,0,0,.19.65.17.17,0,1,1-.31.14,2.45,2.45,0,0,1-.18-.54.18.18,0,0,0-.26-.13l-.68.35a.18.18,0,0,0-.09.21,2.22,2.22,0,0,0,.24.62.16.16,0,0,1-.06.23.18.18,0,0,1-.24-.06,3.43,3.43,0,0,1-.23-.52.18.18,0,0,0-.27-.11c-.22.13-.44.26-.65.41a.17.17,0,0,0-.07.21,2.38,2.38,0,0,0,.29.6.16.16,0,0,1,0,.24.17.17,0,0,1-.24,0,2.7,2.7,0,0,1-.27-.5.18.18,0,0,0-.28-.09c-.21.15-.41.31-.61.47a.17.17,0,0,0,0,.22,2.05,2.05,0,0,0,.34.57.17.17,0,0,1-.26.22,3.08,3.08,0,0,1-.32-.48.18.18,0,0,0-.28-.06c-.2.17-.39.34-.57.52a.2.2,0,0,0,0,.23,2.2,2.2,0,0,0,.39.53.17.17,0,1,1-.24.24,2.17,2.17,0,0,1-.36-.44.18.18,0,0,0-.29,0c-.18.18-.35.37-.52.56a.18.18,0,0,0,0,.23,2.07,2.07,0,0,0,.43.5.17.17,0,0,1,0,.24.17.17,0,0,1-.25,0,3,3,0,0,1-.39-.41.18.18,0,0,0-.29,0c-.16.2-.32.4-.47.61a.2.2,0,0,0,0,.23,2.39,2.39,0,0,0,.49.46.17.17,0,0,1,0,.23.18.18,0,0,1-.24.05,2.6,2.6,0,0,1-.43-.38.18.18,0,0,0-.29,0c-.15.21-.28.42-.42.64a.2.2,0,0,0,0,.23,2.24,2.24,0,0,0,.51.41.18.18,0,0,1,.08.21.17.17,0,0,1-.24.09,2.61,2.61,0,0,1-.46-.34.2.2,0,0,0-.3,0c-.12.22-.24.45-.35.68a.18.18,0,0,0,0,.22,2.53,2.53,0,0,0,.55.37.17.17,0,0,1-.13.32,3.37,3.37,0,0,1-.49-.3.19.19,0,0,0-.29.06c-.11.24-.2.47-.3.71a.19.19,0,0,0,.07.22,2.27,2.27,0,0,0,.57.32.17.17,0,0,1,.12.19.16.16,0,0,1-.22.13,2.49,2.49,0,0,1-.52-.25.18.18,0,0,0-.28.09c-.08.24-.16.48-.23.73a.18.18,0,0,0,.08.21,2.3,2.3,0,0,0,.6.27.17.17,0,0,1,.14.18.16.16,0,0,1-.21.15,2.52,2.52,0,0,1-.54-.21.19.19,0,0,0-.27.12c-.06.24-.11.49-.17.74a.2.2,0,0,0,.11.21,2.16,2.16,0,0,0,.62.21.19.19,0,0,1,.15.18.17.17,0,0,1-.2.16,2.66,2.66,0,0,1-.55-.16.19.19,0,0,0-.26.14c0,.25-.07.5-.1.76a.18.18,0,0,0,.12.19,2.07,2.07,0,0,0,.65.16.17.17,0,0,1,.15.19.16.16,0,0,1-.18.15,2.14,2.14,0,0,1-.56-.11.19.19,0,0,0-.25.16c0,.25,0,.51,0,.77a.17.17,0,0,0,.13.18,2.16,2.16,0,0,0,.66.1.18.18,0,0,1,.17.17.17.17,0,0,1-.17.17,2.76,2.76,0,0,1-.57-.06.18.18,0,0,0-.23.18l0,.77a.2.2,0,0,0,.15.17,2.49,2.49,0,0,0,.67,0,.16.16,0,0,1,.18.16.17.17,0,0,1-.15.18,2.72,2.72,0,0,1-.57,0,.19.19,0,0,0-.22.2c0,.25.06.51.1.76a.19.19,0,0,0,.16.16,2.5,2.5,0,0,0,.67,0,.19.19,0,0,1,.2.14.18.18,0,0,1-.14.2,2.73,2.73,0,0,1-.57,0,.19.19,0,0,0-.2.22c0,.26.1.51.16.75a.2.2,0,0,0,.17.15,2.58,2.58,0,0,0,.68-.08.18.18,0,0,1,.21.12.17.17,0,0,1-.12.21,2.82,2.82,0,0,1-.57.09.19.19,0,0,0-.18.23c.07.25.15.49.23.74a.18.18,0,0,0,.19.12,2.09,2.09,0,0,0,.66-.13.17.17,0,0,1,.22.13.17.17,0,0,1-.12.2,3.16,3.16,0,0,1-.55.13.18.18,0,0,0-.15.25c.09.24.19.47.29.71a.19.19,0,0,0,.19.11,2.5,2.5,0,0,0,.66-.19.17.17,0,0,1,.14.31,2.63,2.63,0,0,1-.54.18.19.19,0,0,0-.14.26c.12.23.23.46.35.68a.2.2,0,0,0,.22.1,2.18,2.18,0,0,0,.62-.25.17.17,0,0,1,.23.07.17.17,0,0,1-.06.23,2.5,2.5,0,0,1-.53.23.19.19,0,0,0-.11.27c.14.22.27.44.41.65a.19.19,0,0,0,.22.07,2.22,2.22,0,0,0,.6-.29.17.17,0,0,1,.24,0,.19.19,0,0,1,0,.24,2.49,2.49,0,0,1-.51.27.19.19,0,0,0-.08.28c.15.21.3.41.46.61a.2.2,0,0,0,.23.06,2.5,2.5,0,0,0,.56-.35.18.18,0,0,1,.25,0,.17.17,0,0,1,0,.24,2.17,2.17,0,0,1-.47.32.19.19,0,0,0-.06.29L193,41a.2.2,0,0,0,.23,0,2.36,2.36,0,0,0,.54-.4.18.18,0,0,1,.24,0,.16.16,0,0,1,0,.24,2.54,2.54,0,0,1-.45.36.18.18,0,0,0,0,.29c.18.18.37.35.56.52a.2.2,0,0,0,.23,0,2.36,2.36,0,0,0,.5-.44.16.16,0,0,1,.24,0,.17.17,0,0,1,0,.24,3,3,0,0,1-.41.39.19.19,0,0,0,0,.3l.6.46a.19.19,0,0,0,.23,0,2.09,2.09,0,0,0,.46-.48.18.18,0,0,1,.24,0,.17.17,0,0,1,0,.24,2.54,2.54,0,0,1-.37.43.19.19,0,0,0,0,.3l.64.41a.2.2,0,0,0,.23,0,2.43,2.43,0,0,0,.41-.5.19.19,0,0,1,.22-.09.17.17,0,0,1,.09.24,3.12,3.12,0,0,1-.34.47.18.18,0,0,0,0,.29l.68.35a.19.19,0,0,0,.22,0,2.53,2.53,0,0,0,.37-.55.17.17,0,0,1,.2-.1.17.17,0,0,1,.11.24,2.8,2.8,0,0,1-.3.49.19.19,0,0,0,.07.28c.23.11.47.21.71.3a.19.19,0,0,0,.22-.07,2,2,0,0,0,.31-.57.18.18,0,0,1,.2-.12.16.16,0,0,1,.13.22,2.3,2.3,0,0,1-.26.52.19.19,0,0,0,.1.28l.72.23a.19.19,0,0,0,.22-.08,2,2,0,0,0,.26-.6.18.18,0,0,1,.19-.14.16.16,0,0,1,.15.21,2.52,2.52,0,0,1-.21.54.18.18,0,0,0,.12.27l.74.17a.2.2,0,0,0,.21-.11,2.21,2.21,0,0,0,.21-.61.19.19,0,0,1,.17-.16.17.17,0,0,1,.17.2,2.66,2.66,0,0,1-.16.55.19.19,0,0,0,.14.26l.76.1a.18.18,0,0,0,.19-.12,2.07,2.07,0,0,0,.16-.65.17.17,0,0,1,.34,0,2.64,2.64,0,0,1-.11.56.19.19,0,0,0,.16.25l.76,0a.2.2,0,0,0,.19-.14,2.45,2.45,0,0,0,.1-.66.17.17,0,0,1,.17-.17.18.18,0,0,1,.17.17,2.76,2.76,0,0,1-.06.57.18.18,0,0,0,.18.23c.26,0,.51,0,.76,0a.19.19,0,0,0,.18-.15,2.49,2.49,0,0,0,0-.67.17.17,0,0,1,.15-.18.17.17,0,0,1,.19.15,2.8,2.8,0,0,1,0,.58.18.18,0,0,0,.2.21l.76-.09a.23.23,0,0,0,.16-.17,2.5,2.5,0,0,0,0-.67.18.18,0,0,1,.14-.2.19.19,0,0,1,.2.14,2.79,2.79,0,0,1,0,.58.19.19,0,0,0,.22.19l.75-.16a.18.18,0,0,0,.14-.17,2.22,2.22,0,0,0-.07-.68.18.18,0,0,1,.12-.21A.17.17,0,0,1,210,45a2.82,2.82,0,0,1,.09.57.18.18,0,0,0,.23.18l.73-.23a.19.19,0,0,0,.13-.19,2.21,2.21,0,0,0-.13-.66.16.16,0,0,1,.12-.22.17.17,0,0,1,.2.12,2.1,2.1,0,0,1,.13.55.19.19,0,0,0,.26.15l.7-.29a.18.18,0,0,0,.12-.19,2.72,2.72,0,0,0-.19-.65.17.17,0,0,1,.08-.23.18.18,0,0,1,.23.08,2.72,2.72,0,0,1,.18.55.18.18,0,0,0,.26.13l.68-.35a.18.18,0,0,0,.09-.21,2.41,2.41,0,0,0-.24-.63.17.17,0,0,1,.06-.23.18.18,0,0,1,.24.06,3.54,3.54,0,0,1,.23.53.18.18,0,0,0,.27.11l.65-.41a.19.19,0,0,0,.07-.22,2.41,2.41,0,0,0-.3-.6.17.17,0,0,1,.29-.19,2.19,2.19,0,0,1,.27.5.18.18,0,0,0,.28.08l.61-.46a.18.18,0,0,0,.05-.23,2.46,2.46,0,0,0-.34-.56.17.17,0,0,1,0-.24.16.16,0,0,1,.24,0,2.13,2.13,0,0,1,.31.47.19.19,0,0,0,.29.06l.57-.51a.2.2,0,0,0,0-.23,2.07,2.07,0,0,0-.39-.54.16.16,0,0,1,0-.24.18.18,0,0,1,.24,0,2.54,2.54,0,0,1,.36.45.18.18,0,0,0,.29,0c.18-.18.35-.37.52-.56a.18.18,0,0,0,0-.23,2.08,2.08,0,0,0-.44-.5.17.17,0,0,1,.22-.26,2.59,2.59,0,0,1,.4.41.18.18,0,0,0,.29,0l.47-.6a.19.19,0,0,0,0-.23,2.14,2.14,0,0,0-.49-.46.19.19,0,0,1,0-.24.17.17,0,0,1,.24,0,2.21,2.21,0,0,1,.43.38.18.18,0,0,0,.29,0c.15-.21.28-.43.42-.64a.2.2,0,0,0,0-.23,2.24,2.24,0,0,0-.51-.41.18.18,0,0,1-.08-.22.17.17,0,0,1,.24-.09,2.24,2.24,0,0,1,.46.35.2.2,0,0,0,.3,0l.35-.67a.2.2,0,0,0,0-.23,2.17,2.17,0,0,0-.55-.36.18.18,0,0,1-.1-.21.16.16,0,0,1,.23-.11,2.22,2.22,0,0,1,.49.3.19.19,0,0,0,.29-.07l.3-.7a.21.21,0,0,0-.07-.23,2.11,2.11,0,0,0-.57-.31.2.2,0,0,1-.13-.2.18.18,0,0,1,.23-.13,2.81,2.81,0,0,1,.52.26.19.19,0,0,0,.28-.09c.08-.24.16-.49.23-.73a.21.21,0,0,0-.08-.22,2.66,2.66,0,0,0-.6-.26.18.18,0,0,1-.14-.19.17.17,0,0,1,.21-.15,2.52,2.52,0,0,1,.54.21.19.19,0,0,0,.27-.11c.06-.25.11-.5.16-.75a.19.19,0,0,0-.1-.21,2.16,2.16,0,0,0-.62-.21.17.17,0,0,1-.15-.17.17.17,0,0,1,.2-.17,3.47,3.47,0,0,1,.55.16.18.18,0,0,0,.26-.14c0-.25.07-.5.1-.75a.19.19,0,0,0-.12-.2,2.47,2.47,0,0,0-.65-.16.17.17,0,0,1-.15-.18.16.16,0,0,1,.18-.16,2.66,2.66,0,0,1,.56.12.2.2,0,0,0,.25-.17c0-.25,0-.51,0-.76A.18.18,0,0,0,222.78,29.31ZM205.6,43a14,14,0,1,1,14-14A14,14,0,0,1,205.6,43Z" transform="translate(-12.39 -4.37)"/></g><path class="cls-2" d="M26.19,44.45a8.25,8.25,0,0,1-.49-.93c-.14-.31-.28-.64-.41-1L12.46,9a.78.78,0,0,0,0-.22.48.48,0,0,1,0-.2c0-.47.31-.7.92-.7h8a1.29,1.29,0,0,1,1.3,1l7.63,22.75c.68-1.9,1.34-3.8,2-5.69s1.24-3.79,1.85-5.68,1.23-3.8,1.85-5.69,1.28-3.79,2-5.69a1.36,1.36,0,0,1,1.38-1h7.87a1.24,1.24,0,0,1,.82.21.74.74,0,0,1,.23.56,1,1,0,0,1,0,.28V9L35.29,42.55c-.08.23-.18.49-.3.77a5.3,5.3,0,0,1-.4.79,2.43,2.43,0,0,1-.53.61,1,1,0,0,1-.67.25H27.21A1,1,0,0,1,26.19,44.45Z" transform="translate(-12.39 -4.37)"/><path class="cls-2" d="M47.14,37.77a1.17,1.17,0,0,1,.27-.8,1.08,1.08,0,0,1,.83-.29h6.62a1.21,1.21,0,0,1,.79.29,1,1,0,0,1,.36.8v6a1.18,1.18,0,0,1-.29.8,1,1,0,0,1-.86.35H48.24c-.73,0-1.1-.38-1.1-1.15Z" transform="translate(-12.39 -4.37)"/><path d="M62.56,9a1.2,1.2,0,0,1,.28-.84,1,1,0,0,1,.82-.31h16a11.1,11.1,0,0,1,3.25.47,11.25,11.25,0,0,1,2.8,1.32,11.48,11.48,0,0,1,2.3,2A12.58,12.58,0,0,1,90.81,17a12.23,12.23,0,0,1,.38,3,12.37,12.37,0,0,1-.81,4.4,12.19,12.19,0,0,1-2.32,3.82,11.72,11.72,0,0,1-3.6,2.72A10.66,10.66,0,0,1,79.81,32H72.24V43.9c0,.72-.39,1.07-1.15,1.07H63.66a1.15,1.15,0,0,1-.8-.26,1,1,0,0,1-.3-.81ZM81.39,20a4.64,4.64,0,0,0-.26-1.5,4.15,4.15,0,0,0-.77-1.34,4,4,0,0,0-1.21-1,3.42,3.42,0,0,0-1.61-.38h-5.3v8.35h5.3a3.57,3.57,0,0,0,1.62-.36,3.69,3.69,0,0,0,1.22-.94,4.28,4.28,0,0,0,.75-1.32A4.8,4.8,0,0,0,81.39,20Z" transform="translate(-12.39 -4.37)"/><path d="M127.36,43.12a2.25,2.25,0,0,1-.15.82,1.2,1.2,0,0,1-.5.61,1.26,1.26,0,0,1-.65.35,3.28,3.28,0,0,1-.65.07h-4.92a2.23,2.23,0,0,1-.85-.13,1.31,1.31,0,0,1-.53-.39,2.35,2.35,0,0,1-.33-.61c-.1-.24-.19-.51-.29-.79l-.33-1.12a15.83,15.83,0,0,1-1.53,1.32,12,12,0,0,1-4.13,2,9.53,9.53,0,0,1-2.46.31,16,16,0,0,1-4.36-.58,15.68,15.68,0,0,1-3.9-1.63A16.19,16.19,0,0,1,96,37.47a16.3,16.3,0,0,1-1.64-3.93,16.89,16.89,0,0,1-.57-4.42A16.29,16.29,0,0,1,95,22.66a16.48,16.48,0,0,1,3.48-5.2A16.24,16.24,0,0,1,110,12.72a11.13,11.13,0,0,1,5.34,1.3,10.05,10.05,0,0,1,2,1.44A11.14,11.14,0,0,1,119,17.27l.73-2.27c.16-.42.3-.75.41-1a2,2,0,0,1,.35-.58,1,1,0,0,1,.46-.25,3.9,3.9,0,0,1,.78-.06h3.72a2.73,2.73,0,0,1,.65.08,1.18,1.18,0,0,1,.65.34,1.62,1.62,0,0,1,.5.63,2,2,0,0,1,.15.8Zm-24.62-14a9.19,9.19,0,0,0,.51,3.09,7.35,7.35,0,0,0,1.46,2.49A7,7,0,0,0,110,37a7.86,7.86,0,0,0,3.12-.61,8.09,8.09,0,0,0,2.5-1.66,7.65,7.65,0,0,0,1.66-2.49,8.15,8.15,0,0,0,0-6.14,8.38,8.38,0,0,0-1.66-2.55,7.94,7.94,0,0,0-2.5-1.73,7.54,7.54,0,0,0-3.12-.64,6.72,6.72,0,0,0-3,.64,7,7,0,0,0-2.29,1.73,8,8,0,0,0-1.46,2.55A9.17,9.17,0,0,0,102.74,29.12Z" transform="translate(-12.39 -4.37)"/><path d="M133.36,15.07a1.77,1.77,0,0,1,.18-.82,1.53,1.53,0,0,1,.46-.57,1.76,1.76,0,0,1,.65-.34,2.25,2.25,0,0,1,.71-.12h3.78a1.37,1.37,0,0,1,1,.38,3.36,3.36,0,0,1,.64,1,11,11,0,0,1,.46,1.27,12.11,12.11,0,0,0,.47,1.36c.5-.56,1-1.1,1.49-1.63a11.29,11.29,0,0,1,1.59-1.43,8.14,8.14,0,0,1,1.86-1,6.43,6.43,0,0,1,2.31-.39,12.61,12.61,0,0,1,2.42.21,10.33,10.33,0,0,1,2,.58,12.25,12.25,0,0,1,1.89,1c.62.4,1.3.87,2,1.4a1.77,1.77,0,0,1,1.08,1.47,2.55,2.55,0,0,1-.43,1.28l-2.27,3.87a2,2,0,0,1-1.68,1,2.71,2.71,0,0,1-1.12-.28,7.94,7.94,0,0,0-2.19-1.56,6,6,0,0,0-2.54-.51,4.72,4.72,0,0,0-1.71.28,4.58,4.58,0,0,0-1.34.77A6.82,6.82,0,0,0,144,23.4c-.35.47-.7,1-1.05,1.55v18.1a1.69,1.69,0,0,1-2,1.92h-5.63a1.71,1.71,0,0,1-1.95-1.92Z" transform="translate(-12.39 -4.37)"/><path d="M162.14,15.07a1.9,1.9,0,0,1,.17-.82,1.55,1.55,0,0,1,.47-.57,1.72,1.72,0,0,1,.64-.34,2.31,2.31,0,0,1,.72-.12h3.77a1.35,1.35,0,0,1,1,.38,3.17,3.17,0,0,1,.64,1,8.2,8.2,0,0,1,.46,1.27,12.15,12.15,0,0,0,.48,1.36c.5-.56,1-1.1,1.49-1.63a11.8,11.8,0,0,1,1.58-1.43,8.35,8.35,0,0,1,1.86-1,6.45,6.45,0,0,1,2.32-.39,12.5,12.5,0,0,1,2.41.21,9.94,9.94,0,0,1,2,.58,11.81,11.81,0,0,1,1.89,1c.62.4,1.3.87,2,1.4a1.78,1.78,0,0,1,1.07,1.47,2.62,2.62,0,0,1-.42,1.28l-2.28,3.87a2,2,0,0,1-1.67,1,2.75,2.75,0,0,1-1.13-.28,7.76,7.76,0,0,0-2.18-1.56,6.06,6.06,0,0,0-2.54-.51,4.72,4.72,0,0,0-1.71.28,4.46,4.46,0,0,0-1.34.77,6.86,6.86,0,0,0-1.13,1.2c-.35.47-.7,1-1,1.55v18.1a2,2,0,0,1-.46,1.44,2.07,2.07,0,0,1-1.54.48h-5.62a1.71,1.71,0,0,1-2-1.92Z" transform="translate(-12.39 -4.37)"/><path d="M227,8.27a1.37,1.37,0,0,1,.51-1.16,6,6,0,0,1,1.47-.74l5.67-2,.24,0h.21a1.31,1.31,0,0,1,1.24.54,2.78,2.78,0,0,1,.31,1.41l0,6.88H240a1.8,1.8,0,0,1,1.3.48,1.84,1.84,0,0,1,.5,1.42v4.83a2,2,0,0,1-.5,1.53A1.76,1.76,0,0,1,240,22h-3.42l0,21.1a1.83,1.83,0,0,1-.55,1.44,2.22,2.22,0,0,1-1.52.48h-5.65A1.7,1.7,0,0,1,227,43.05l0-21.1h-2.58c-1.28,0-1.92-.68-1.92-2V15.1a1.69,1.69,0,0,1,1.92-1.9h2.58Z" transform="translate(-12.39 -4.37)"/></svg>